<?xml version="1.0" encoding="utf-8"?>
<!-- Generator: Adobe Illustrator 22.1.0, SVG Export Plug-In . SVG Version: 6.00 Build 0)  -->
<svg version="1.1" id="Ebene_1" xmlns="http://www.w3.org/2000/svg" xmlns:xlink="http://www.w3.org/1999/xlink" x="0px" y="0px"
	 viewBox="0 0 748.6 278.6" style="enable-background:new 0 0 748.6 278.6;" xml:space="preserve">
<style type="text/css">
	.st0{fill:#EDEDED;}
	.st1{fill:#CD0F41;}
	.st2{fill:#78232D;}
	.st3{fill:#AA142D;}
	.st4{fill:#E60050;}
	.st5{fill:#CA142B;}
	.st6{fill:#AB1921;}
	.st7{fill:#79161C;}
	.st8{fill:#E4004D;}
	.st9{fill:#991C20;}
	.st10{fill:#6C1719;}
	.st11{fill:#FFFFFF;}
	.st12{fill:#1D1D1B;}
</style>
<g>
	<polygon class="st0" points="152.9,41.1 152.9,62.8 152.9,62.8 152.9,162.2 152.9,162.2 152.9,237.4 152.9,237.4 230.4,194.5 
		244.3,73.7 	"/>
	<path class="st1" d="M230.4,194.5l7.5-65.3c-10.2-16.6-28.6-27.7-49.5-27.7c-32.1,0-58.2,26-58.2,58.2c0,32,25.9,58,57.9,58.2
		L230.4,194.5z"/>
	<path class="st2" d="M104.2,140.4c-13.5,0-25.5,6.5-33,16.5l4.3,37.6l45.3,25.1c14.6-6.4,24.8-20.9,24.8-37.8
		C145.5,158.9,127,140.4,104.2,140.4z"/>
	<path class="st3" d="M244.3,73.7l-78.5-28c-8.4,9.1-13.6,21.3-13.6,34.7c0,28.3,22.9,51.2,51.2,51.2c14,0,26.6-5.6,35.9-14.7
		L244.3,73.7z"/>
	<path class="st4" d="M132.8,48.2L61.5,73.7l9.6,83.5c11.1,9.5,25.5,15.2,41.3,15.2c35.2,0,63.7-28.5,63.7-63.7
		C176.1,80.5,158,56.7,132.8,48.2z"/>
	<path class="st5" d="M130.2,159.8c0,3.3,0.3,6.6,0.8,9.8c26.1-8,45.1-32.2,45.1-60.9c0-1.9-0.1-3.8-0.3-5.7
		C149.7,108.7,130.2,131.9,130.2,159.8z"/>
	<path class="st6" d="M155.7,61.9c-2.2,5.7-3.4,11.9-3.4,18.5c0,17.5,8.8,33,22.3,42.3c1-4.5,1.6-9.2,1.6-14
		C176.1,90.1,168.3,73.5,155.7,61.9z"/>
	<path class="st7" d="M71.1,157.1c11.1,9.5,25.5,15.2,41.3,15.2c10.7,0,20.7-2.6,29.5-7.3c-6.4-14.5-20.9-24.6-37.8-24.6
		c-13.5,0-25.5,6.5-33,16.5L71.1,157.1z"/>
	<path class="st8" d="M131,150.3c-0.5,3.1-0.8,6.2-0.8,9.4c0,3.3,0.3,6.6,0.8,9.8c3.8-1.2,7.4-2.7,10.9-4.5
		C139.4,159.3,135.7,154.3,131,150.3z"/>
	<path class="st8" d="M174.5,122.6c1-4.5,1.6-9.2,1.6-14c0-1.9-0.1-3.8-0.3-5.7c-5.4,1.2-10.4,3.1-15.1,5.6
		C164.4,114.1,169.1,118.9,174.5,122.6z"/>
	<path class="st9" d="M203.5,131.6c10.9,0,21.1-3.4,29.4-9.3c-10.7-12.7-26.6-20.7-44.5-20.7c-10,0-19.4,2.5-27.6,7
		C169.9,122.4,185.6,131.6,203.5,131.6z"/>
	<path class="st10" d="M142.9,196.1c1.6-4.5,2.6-9.3,2.6-14.3c0-12.6-5.6-23.8-14.5-31.4c-0.5,3.1-0.8,6.2-0.8,9.4
		C130.2,173.5,135,186.1,142.9,196.1z"/>
	<path class="st4" d="M152.9,247.5l-85.5-47.4l-0.1-1.1L52.1,67.1l100.9-36l100.9,36l-15.3,133.1L152.9,247.5z M71.6,197.4
		l81.4,45.1l81.4-45.1L249,70.1l-96-34.2L57,70.1L71.6,197.4z"/>
	<path class="st11" d="M153,89l-33.7,75.5l0,0h12.6l0,0l6.8-16.9h28.6l6.7,16.9l0,0h12.6l0,0L153,89L153,89L153,89L153,89L153,89z
		 M162.8,137.2h-19.7l9.9-23.7L162.8,137.2z"/>
</g>
<g>
	<g>
		<path class="st12" d="M400.7,194.1v15.6c0,0.3-0.2,0.5-0.5,0.5h-0.7c-0.3,0-0.5-0.2-0.5-0.5v-15.6c0-0.3,0.2-0.4,0.5-0.4h0.7
			C400.6,193.7,400.7,193.8,400.7,194.1z"/>
		<path class="st12" d="M405.9,209.8v-15.6c0-0.3,0.2-0.4,0.5-0.4h1.6c0.3,0,0.4,0.1,0.5,0.3l6.9,14.7h0.1c-0.1-2-0.1-4.2-0.1-6.1
			v-8.5c0-0.3,0.2-0.4,0.5-0.4h0.7c0.3,0,0.5,0.1,0.5,0.4v15.6c0,0.3-0.2,0.5-0.5,0.5h-1.7c-0.2,0-0.4-0.1-0.5-0.3l-6.7-14.4h-0.1
			c0.1,1.9,0,3.9,0.1,5.8v8.5c0,0.3-0.2,0.5-0.4,0.5h-0.7C406.1,210.2,405.9,210.1,405.9,209.8z"/>
		<path class="st12" d="M420.3,208.8c-0.2-0.2-0.2-0.4-0.1-0.6l0.3-0.5c0.2-0.3,0.4-0.3,0.6-0.1c1.1,0.9,2.7,1.5,4,1.5
			c2.5,0,3.9-1.2,4-3.3c0-2.4-1.8-3-4.1-3.8c-2.2-0.7-4.5-1.6-4.5-4.4c0-2.6,2-4.4,5-4.4c1.6,0,3.3,0.5,4.3,1.3
			c0.2,0.2,0.3,0.4,0.1,0.6l-0.3,0.4c-0.1,0.2-0.4,0.3-0.6,0.1c-0.9-0.7-2.3-1.1-3.4-1.1c-2.1,0-3.4,1.1-3.4,2.8
			c0,1.9,1.6,2.5,3.7,3.2c2.3,0.8,4.9,1.6,4.9,5c0,2.9-2.2,4.8-5.6,4.8C423.4,210.6,421.5,209.9,420.3,208.8z"/>
		<path class="st12" d="M436.3,194.1v15.6c0,0.3-0.2,0.5-0.5,0.5h-0.7c-0.3,0-0.5-0.2-0.5-0.5v-15.6c0-0.3,0.2-0.4,0.5-0.4h0.7
			C436.1,193.7,436.3,193.8,436.3,194.1z"/>
		<path class="st12" d="M442,210.2c-0.3,0-0.5-0.2-0.5-0.5v-15.6c0-0.3,0.2-0.4,0.5-0.4h3.4c4.7,0,7.1,2.8,7.1,8.3s-2.5,8.3-7.1,8.3
			H442z M450.7,202c0-4.5-1.8-6.8-5.2-6.8h-2.3v13.7h2.3C448.9,208.8,450.7,206.5,450.7,202z"/>
		<path class="st12" d="M456.6,209.8v-15.6c0-0.3,0.2-0.4,0.5-0.4h7.4c0.3,0,0.4,0.1,0.4,0.4v0.5c0,0.3-0.2,0.4-0.4,0.4h-6.2v5.9
			h5.3c0.3,0,0.4,0.2,0.4,0.4v0.5c0,0.3-0.2,0.4-0.4,0.4h-5.3v6.6h6.5c0.3,0,0.5,0.2,0.5,0.5v0.4c0,0.3-0.2,0.5-0.5,0.5h-7.7
			C456.8,210.2,456.6,210.1,456.6,209.8z"/>
		<path class="st12" d="M485.8,210.2h-0.9c-0.2,0-0.4-0.1-0.6-0.3l-4.5-7.7h-2.5v7.5c0,0.3-0.2,0.5-0.5,0.5h-0.7
			c-0.3,0-0.5-0.2-0.5-0.5v-15.6c0-0.3,0.2-0.4,0.5-0.4h0.7c0.3,0,0.5,0.1,0.5,0.4v6.8h2.5l4.3-7c0.1-0.2,0.3-0.3,0.5-0.3h0.8
			c0.4,0,0.5,0.2,0.3,0.5l-4.5,7.3l4.9,8.1C486.3,210,486.1,210.2,485.8,210.2z"/>
		<path class="st12" d="M488.8,209.8v-15.6c0-0.3,0.2-0.4,0.5-0.4h1.6c0.3,0,0.4,0.1,0.5,0.3l6.9,14.7h0.1c-0.1-2-0.1-4.2-0.1-6.1
			v-8.5c0-0.3,0.2-0.4,0.5-0.4h0.7c0.3,0,0.5,0.1,0.5,0.4v15.6c0,0.3-0.2,0.5-0.5,0.5h-1.7c-0.2,0-0.4-0.1-0.5-0.3l-6.7-14.4h-0.1
			c0.1,1.9,0,3.9,0.1,5.8v8.5c0,0.3-0.2,0.5-0.4,0.5h-0.7C489,210.2,488.8,210.1,488.8,209.8z"/>
		<path class="st12" d="M517.4,202c0,5.2-2.7,8.6-6.7,8.6c-4.1,0-6.7-3.4-6.7-8.6c0-5.2,2.7-8.6,6.7-8.6
			C514.7,193.3,517.4,196.8,517.4,202z M515.7,202c0-4.4-1.9-7.2-5-7.2c-3.1,0-5,2.8-5,7.2s1.9,7.2,5,7.2
			C513.7,209.2,515.7,206.4,515.7,202z"/>
		<path class="st12" d="M522.8,209.9l-3.3-15.7c0-0.3,0.1-0.5,0.4-0.5h0.7c0.3,0,0.4,0.1,0.5,0.4l2.3,11.2l0.6,3.2h0.1l3.4-14.4
			c0.1-0.2,0.2-0.4,0.5-0.4h1.1c0.3,0,0.5,0.1,0.5,0.4l3.4,14.4h0.1l0.6-3.2l2.3-11.2c0-0.3,0.2-0.4,0.5-0.4h0.7
			c0.3,0,0.5,0.2,0.4,0.5l-3.3,15.7c-0.1,0.2-0.2,0.4-0.5,0.4h-1.3c-0.3,0-0.5-0.1-0.5-0.4l-3.2-14.1h-0.1l-3.3,14.1
			c0,0.2-0.2,0.4-0.5,0.4h-1.3C523,210.2,522.8,210.1,522.8,209.9z"/>
		<path class="st12" d="M548.9,209.2v0.5c0,0.3-0.2,0.5-0.5,0.5h-7.4c-0.3,0-0.5-0.2-0.5-0.5v-15.6c0-0.3,0.2-0.4,0.5-0.4h0.7
			c0.3,0,0.5,0.1,0.5,0.4v14.7h6.2C548.8,208.8,548.9,208.9,548.9,209.2z"/>
		<path class="st12" d="M552.2,209.8v-15.6c0-0.3,0.2-0.4,0.5-0.4h7.4c0.3,0,0.4,0.1,0.4,0.4v0.5c0,0.3-0.2,0.4-0.4,0.4h-6.2v5.9
			h5.3c0.3,0,0.4,0.2,0.4,0.4v0.5c0,0.3-0.2,0.4-0.4,0.4h-5.3v6.6h6.5c0.3,0,0.5,0.2,0.5,0.5v0.4c0,0.3-0.2,0.5-0.5,0.5h-7.7
			C552.3,210.2,552.2,210.1,552.2,209.8z"/>
		<path class="st12" d="M565.1,210.2c-0.3,0-0.5-0.2-0.5-0.5v-15.6c0-0.3,0.2-0.4,0.5-0.4h3.4c4.7,0,7.1,2.8,7.1,8.3
			s-2.5,8.3-7.1,8.3H565.1z M573.8,202c0-4.5-1.8-6.8-5.2-6.8h-2.3v13.7h2.3C572.1,208.8,573.8,206.5,573.8,202z"/>
		<path class="st12" d="M590.4,201.7v7c0,0.2-0.1,0.4-0.3,0.5c-1.2,0.8-3,1.4-4.7,1.4c-4.4,0-6.8-3-6.8-8.6c0-5.2,2.8-8.6,6.9-8.6
			c1.4,0,3,0.5,4,1.2c0.2,0.2,0.3,0.4,0.1,0.6l-0.3,0.4c-0.1,0.2-0.4,0.3-0.6,0.1c-0.9-0.6-2.1-1-3.1-1c-3.3,0-5.3,2.8-5.3,7.2
			c0,4.8,1.7,7.2,5.1,7.2c1.2,0,2.5-0.3,3.4-0.9v-5.7h-2.8c-0.3,0-0.5-0.2-0.5-0.5v-0.4c0-0.3,0.2-0.5,0.5-0.5h3.9
			C590.3,201.2,590.4,201.4,590.4,201.7z"/>
		<path class="st12" d="M594.6,209.8v-15.6c0-0.3,0.2-0.4,0.5-0.4h7.4c0.3,0,0.4,0.1,0.4,0.4v0.5c0,0.3-0.2,0.4-0.4,0.4h-6.2v5.9
			h5.3c0.3,0,0.4,0.2,0.4,0.4v0.5c0,0.3-0.2,0.4-0.4,0.4h-5.3v6.6h6.5c0.3,0,0.5,0.2,0.5,0.5v0.4c0,0.3-0.2,0.5-0.5,0.5H595
			C594.7,210.2,594.6,210.1,594.6,209.8z"/>
	</g>
	<g>
		<path class="st12" d="M402.9,100.9l8.7-26.8c0.2-0.6,0.6-0.9,1.2-0.9h2.8c0.6,0,1,0.3,1.2,0.9l8.7,26.8c0.2,0.7-0.1,1.2-0.9,1.2
			h-2c-0.6,0-1-0.2-1.2-0.9l-1.9-6.3h-10.8l-1.9,6.3c-0.2,0.6-0.6,0.9-1.2,0.9h-1.9C403,102,402.6,101.6,402.9,100.9z M418.5,91.7
			l-4.4-15h-0.1l-4.4,15H418.5z"/>
		<path class="st12" d="M434,101V74.2c0-0.7,0.4-1,1-1h4c0.6,0,1,0.2,1.2,0.8l10,24.6h0.1c-0.2-4-0.1-8.5-0.3-12.4V74.2
			c0-0.7,0.4-1,1-1h1.9c0.7,0,1,0.4,1,1V101c0,0.7-0.4,1-1,1h-4.2c-0.6,0-1-0.2-1.2-0.8l-9.8-23.9h-0.1c0.2,3.8,0.1,7.9,0.2,11.7
			V101c0,0.7-0.4,1-1,1H435C434.3,102,434,101.7,434,101z"/>
		<path class="st12" d="M485.9,86.9V99c0,0.5-0.2,1-0.6,1.2c-2.1,1.4-5.5,2.5-8.8,2.5c-7.8,0-11.9-5.1-11.9-15.1
			c0-9,5-15.1,12.6-15.1c2.5,0,5,0.8,7.1,2.1c0.5,0.4,0.6,0.9,0.3,1.5l-0.7,1c-0.4,0.5-0.8,0.6-1.4,0.2c-1.4-0.9-3.2-1.5-4.9-1.5
			c-5.4,0-8.7,4.4-8.7,11.7c0,8,2.4,11.7,7.8,11.7c1.9,0,3.9-0.5,5.4-1.3v-9h-4.2c-0.7,0-1-0.4-1-1v-1.1c0-0.7,0.4-1,1-1h7.1
			C485.5,85.9,485.9,86.2,485.9,86.9z"/>
		<path class="st12" d="M516.1,74.2V93c0,5.9-3.8,9.7-9.9,9.7c-6.1,0-9.9-3.9-9.9-9.7V74.2c0-0.7,0.4-1,1-1h1.9c0.7,0,1,0.4,1,1
			v18.5c0,4.1,2,6.5,6,6.5s6-2.4,6-6.5V74.2c0-0.7,0.4-1,1-1h1.9C515.7,73.2,516.1,73.6,516.1,74.2z"/>
		<path class="st12" d="M543.5,99.6v1.4c0,0.7-0.4,1-1,1h-13.3c-0.7,0-1-0.4-1-1V74.2c0-0.7,0.4-1,1-1h1.9c0.7,0,1,0.4,1,1v24.4
			h10.4C543.1,98.6,543.5,99,543.5,99.6z"/>
		<path class="st12" d="M549,100.9l8.7-26.8c0.2-0.6,0.6-0.9,1.2-0.9h2.8c0.6,0,1,0.3,1.2,0.9l8.7,26.8c0.2,0.7-0.1,1.2-0.9,1.2h-2
			c-0.6,0-1-0.2-1.2-0.9l-1.9-6.3h-10.8l-1.9,6.3c-0.2,0.6-0.6,0.9-1.2,0.9h-1.9C549.1,102,548.7,101.6,549,100.9z M564.7,91.7
			l-4.4-15h-0.1l-4.4,15H564.7z"/>
		<path class="st12" d="M598.5,102h-2.2c-0.5,0-1-0.2-1.2-0.7l-6.4-11.1c-0.3,0-0.7,0-1.1,0H584V101c0,0.7-0.4,1-1,1h-1.9
			c-0.7,0-1-0.4-1-1V74.2c0-0.7,0.4-1,1-1h6.4c7,0,11.2,3.2,11.2,8.5c0,4.2-2.4,6.8-6.1,7.9l6.6,11.2
			C599.6,101.5,599.3,102,598.5,102z M587.6,87.2c4.6,0,7-2,7-5.6c0-3.4-2.2-5.3-6.6-5.3H584v10.9H587.6z"/>
	</g>
	<g>
		<g>
			<path class="st12" d="M305.9,170.6l13.1-45.5c0.3-1.1,1.1-1.7,2.2-1.7H333c1.1,0,1.9,0.6,2.2,1.7l13.1,45.5
				c0.4,1.3-0.3,2.2-1.6,2.2h-8.1c-1.1,0-1.9-0.5-2.1-1.7l-2.2-8.9h-14.4l-2.1,8.9c-0.3,1.2-1.1,1.7-2.2,1.7h-8
				C306.2,172.8,305.5,172,305.9,170.6z M332.5,153.8l-5.3-22.1H327l-5.3,22.1H332.5z"/>
			<path class="st12" d="M389.6,172.8h-8.3c-1,0-1.8-0.4-2.3-1.3l-10.1-18.2h-4v17.6c0,1.3-0.7,2-2,2h-7.7c-1.3,0-2-0.7-2-2v-45.5
				c0-1.3,0.7-2,2-2h12.6c14.1,0,21.9,5,21.9,15.1c0,7-3.8,11.7-9.5,13.7l10.7,18.3C391.7,171.8,391.2,172.8,389.6,172.8z
				 M365,145.9h4.6c5.6,0,8.5-2.6,8.5-7.4c0-4.4-2.8-6.9-8.1-6.9h-5V145.9z"/>
			<path class="st12" d="M427.1,163.3l3,4.4c0.6,1,0.6,2.1-0.4,2.8c-3.5,2.4-8.1,3.7-12.8,3.7c-13.8,0-22.4-9.9-22.4-26
				c0-16,8.6-26,22.2-26c4.7,0,9.3,1.3,12.6,3.6c1.1,0.7,1.1,1.7,0.4,2.8l-3,4.4c-0.7,1.1-1.6,1.1-2.7,0.4c-2-1.1-4.3-1.8-6.7-1.8
				c-6.7,0-10.6,5.7-10.6,16.6c0,10.9,3.9,16.6,10.6,16.6c2.5,0,5-0.7,7.1-1.9C425.5,162.1,426.4,162.1,427.1,163.3z"/>
			<path class="st12" d="M474.7,125.4v45.5c0,1.3-0.7,2-1.9,2H465c-1.2,0-1.9-0.7-1.9-2v-19.5h-14.7v19.5c0,1.3-0.7,2-2,2h-7.7
				c-1.3,0-2-0.7-2-2v-45.5c0-1.3,0.7-2,2-2h7.7c1.3,0,2,0.7,2,2v17.1h14.7v-17.1c0-1.3,0.7-2,1.9-2h7.8
				C474,123.4,474.7,124.1,474.7,125.4z"/>
			<path class="st12" d="M496.8,125.4v45.5c0,1.3-0.7,2-2,2h-7.7c-1.3,0-2-0.7-2-2v-45.5c0-1.3,0.7-2,2-2h7.7
				C496.1,123.4,496.8,124.1,496.8,125.4z"/>
			<path class="st12" d="M515.7,170.8v-38.3h-10.3c-1.3,0-2-0.7-2-2v-5.2c0-1.3,0.7-2,2-2h32.3c1.2,0,1.9,0.7,1.9,2v5.2
				c0,1.3-0.7,2-1.9,2h-10.3v38.3c0,1.3-0.7,2-2,2h-7.7C516.4,172.8,515.7,172.1,515.7,170.8z"/>
			<path class="st12" d="M546.3,170.8v-45.5c0-1.3,0.7-2,2-2h25.6c1.2,0,1.9,0.7,1.9,2v5c0,1.2-0.7,1.9-1.9,1.9H558v11.1h13.1
				c1.3,0,2,0.7,2,1.9v4.2c0,1.3-0.7,2-2,2H558v12.3h16.2c1.2,0,1.9,0.7,1.9,2v5c0,1.3-0.7,2-1.9,2h-25.9
				C547,172.8,546.3,172.1,546.3,170.8z"/>
			<path class="st12" d="M614.8,163.3l3,4.4c0.6,1,0.6,2.1-0.4,2.8c-3.5,2.4-8.1,3.7-12.8,3.7c-13.8,0-22.4-9.9-22.4-26
				c0-16,8.6-26,22.2-26c4.7,0,9.3,1.3,12.6,3.6c1.1,0.7,1.1,1.7,0.4,2.8l-3,4.4c-0.7,1.1-1.6,1.1-2.7,0.4c-2-1.1-4.3-1.8-6.7-1.8
				c-6.7,0-10.6,5.7-10.6,16.6c0,10.9,3.9,16.6,10.6,16.6c2.5,0,5-0.7,7.1-1.9C613.2,162.1,614.1,162.1,614.8,163.3z"/>
			<path class="st12" d="M633,170.8v-38.3h-10.3c-1.3,0-2-0.7-2-2v-5.2c0-1.3,0.7-2,2-2H655c1.2,0,1.9,0.7,1.9,2v5.2
				c0,1.3-0.7,2-1.9,2h-10.3v38.3c0,1.3-0.7,2-2,2h-7.7C633.7,172.8,633,172.1,633,170.8z"/>
			<path class="st12" d="M659.8,168.6c-1-0.7-1.1-1.8-0.4-2.8l3-4.3c0.7-1,1.6-1.2,2.7-0.4c3.4,2.3,8.1,4,11.8,4
				c4.6,0,7.4-2,7.4-5.5c0-4.7-3.5-5.7-9.6-7.7c-6.6-2.3-14.4-5.3-14.4-14.8c0-9.3,7.1-14.9,18.5-14.9c5,0,10.4,1.6,14.2,4
				c1.1,0.6,1.2,1.6,0.5,2.7l-2.9,4.2c-0.6,1-1.6,1.2-2.7,0.6c-2.7-1.5-6-2.3-8.8-2.3c-4.2,0-6.7,1.8-6.7,4.7c0,3.5,3,4.5,8.6,6.4
				c6.8,2.1,15.5,4.9,15.5,15.9c-0.1,10.2-8.5,15.7-19.3,15.7C671,174.1,664.5,172.1,659.8,168.6z"/>
		</g>
	</g>
</g>
</svg>
